<svg width="70" height="70" viewBox="0 0 70 70" fill="none" xmlns="http://www.w3.org/2000/svg">
<g filter="url(#filter0_d_1_137)">
<circle cx="35" cy="35" r="25" fill="white"/>
<path d="M31.0001 24C31.1317 23.9992 31.2622 24.0245 31.384 24.0742C31.5059 24.124 31.6167 24.1973 31.7101 24.29L40.2901 32.88C40.8519 33.4425 41.1675 34.205 41.1675 35C41.1675 35.795 40.8519 36.5575 40.2901 37.12L31.7101 45.71C31.5218 45.8983 31.2664 46.0041 31.0001 46.0041C30.7338 46.0041 30.4784 45.8983 30.2901 45.71C30.1018 45.5217 29.996 45.2663 29.996 45C29.996 44.7337 30.1018 44.4783 30.2901 44.29L38.8801 35.71C38.9738 35.617 39.0482 35.5064 39.099 35.3846C39.1498 35.2627 39.1759 35.132 39.1759 35C39.1759 34.868 39.1498 34.7373 39.099 34.6154C39.0482 34.4936 38.9738 34.383 38.8801 34.29L30.2901 25.71C30.1964 25.617 30.122 25.5064 30.0712 25.3846C30.0205 25.2627 29.9943 25.132 29.9943 25C29.9943 24.868 30.0205 24.7373 30.0712 24.6154C30.122 24.4936 30.1964 24.383 30.2901 24.29C30.3836 24.1973 30.4944 24.124 30.6162 24.0742C30.7381 24.0245 30.8685 23.9992 31.0001 24Z" fill="#726DA8"/>
</g>
<defs>
<filter id="filter0_d_1_137" x="0" y="0" width="70" height="70" filterUnits="userSpaceOnUse" color-interpolation-filters="sRGB">
<feFlood flood-opacity="0" result="BackgroundImageFix"/>
<feColorMatrix in="SourceAlpha" type="matrix" values="0 0 0 0 0 0 0 0 0 0 0 0 0 0 0 0 0 0 127 0" result="hardAlpha"/>
<feOffset/>
<feGaussianBlur stdDeviation="5"/>
<feColorMatrix type="matrix" values="0 0 0 0 0 0 0 0 0 0 0 0 0 0 0 0 0 0 0.3 0"/>
<feBlend mode="normal" in2="BackgroundImageFix" result="effect1_dropShadow_1_137"/>
<feBlend mode="normal" in="SourceGraphic" in2="effect1_dropShadow_1_137" result="shape"/>
</filter>
</defs>
</svg>
